<?xml version="1.0" encoding="UTF-8"?><svg id="Ebene_1" xmlns="http://www.w3.org/2000/svg" viewBox="0 0 1381.93 314.97"><defs><style>.cls-1{fill:none;stroke:#f08219;stroke-miterlimit:10;stroke-width:4px;}.cls-2{fill:#f08219;}</style></defs><path class="cls-2" d="M108.69,142.9v82.81h-31.05v-31.05h-36.23v31.05H10.35v-82.81c0-34.5,16.56-51.76,49.69-51.76s48.65,17.25,48.65,51.76ZM60.04,122.2c-12.42,0-18.63,6.9-18.63,20.7v20.7h36.23v-20.7c0-13.8-5.87-20.7-17.6-20.7Z"/><path class="cls-2" d="M186.33,91.15h31.05v82.81c0,34.51-16.22,51.76-48.65,51.76s-49.69-17.25-49.69-51.76v-82.81h31.05v82.81c0,13.8,6.21,20.7,18.63,20.7,11.73,0,17.6-6.9,17.6-20.7v-82.81Z"/><path class="cls-2" d="M258.79,91.15c44.86,0,67.29,22.43,67.29,67.29s-22.43,67.29-67.29,67.29h-31.05V91.15h31.05ZM258.79,122.2v72.46c24.15,0,36.23-12.08,36.23-36.23s-12.08-36.23-36.23-36.23Z"/><path class="cls-2" d="M367.48,91.15v134.57h-31.05V91.15h31.05Z"/><path class="cls-2" d="M496.88,158.43c0,44.86-19.67,67.29-59,67.29s-60.04-22.43-60.04-67.29,20.01-67.29,60.04-67.29,59,22.43,59,67.29ZM437.87,122.2c-19.32,0-28.98,12.08-28.98,36.23s9.66,36.23,28.98,36.23,27.95-12.08,27.95-36.23-9.32-36.23-27.95-36.23Z"/><path class="cls-2" d="M628.34,91.15l3.11,31.05h-51.76v20.7h41.41v31.05h-41.41v20.7h51.76l-3.11,31.05h-79.71V91.15h79.71Z"/><path class="cls-2" d="M672.85,127.38c0,10.35,5.18,15.53,15.53,15.53h5.18c10.35,0,15.53-5.18,15.53-15.53v-36.23h31.05v36.23c0,17.25-5.18,27.6-15.53,31.05,10.35,3.45,15.53,13.8,15.53,31.05v36.23h-31.05v-36.23c0-10.35-5.18-15.53-15.53-15.53h-5.18c-10.35,0-15.53,5.18-15.53,15.53v36.23h-31.05v-36.23c0-17.25,5.18-27.6,15.53-31.05-10.35-3.45-15.53-13.8-15.53-31.05v-36.23h31.05v36.23Z"/><path class="cls-2" d="M802.25,91.15c31.05,0,46.58,15.53,46.58,46.58s-15.53,46.58-46.58,46.58h-20.7v41.41h-31.05V91.15h51.76ZM781.54,153.26h20.7c10.35,0,15.53-5.18,15.53-15.53s-5.18-15.53-15.53-15.53h-20.7v31.05Z"/><path class="cls-2" d="M859.18,225.72V91.15h31.05v103.52h51.76l-3.11,31.05h-79.71Z"/><path class="cls-2" d="M1071.39,158.43c0,44.86-19.67,67.29-59,67.29s-60.04-22.43-60.04-67.29,20.01-67.29,60.04-67.29,59,22.43,59,67.29ZM1012.38,122.2c-19.32,0-28.98,12.08-28.98,36.23s9.66,36.23,28.98,36.23,27.95-12.08,27.95-36.23-9.32-36.23-27.95-36.23Z"/><path class="cls-2" d="M1133.5,91.15c31.05,0,46.58,15.53,46.58,46.58,0,20.7-5.87,33.82-17.6,39.34l17.6,48.65h-34.16l-12.42-41.41h-20.7v41.41h-31.05V91.15h51.76ZM1112.79,153.26h20.7c10.35,0,15.53-5.18,15.53-15.53s-5.18-15.53-15.53-15.53h-20.7v31.05Z"/><path class="cls-2" d="M1270.14,91.15l3.11,31.05h-51.76v20.7h41.41v31.05h-41.41v20.7h51.76l-3.11,31.05h-79.71V91.15h79.71Z"/><path class="cls-2" d="M1335.35,91.15c31.05,0,46.58,15.53,46.58,46.58,0,20.7-5.87,33.82-17.6,39.34l17.6,48.65h-34.16l-12.42-41.41h-20.7v41.41h-31.05V91.15h51.76ZM1314.65,153.26h20.7c10.35,0,15.53-5.18,15.53-15.53s-5.18-15.53-15.53-15.53h-20.7v31.05Z"/><line class="cls-1" x1="10.45" y1="68.83" x2="10.45" y2="60.16"/><line class="cls-1" x1="34.49" y1="68.83" x2="34.49" y2="56.63"/><line class="cls-1" x1="58.53" y1="68.83" x2="58.53" y2="48.18"/><line class="cls-1" x1="82.57" y1="68.83" x2="82.57" y2="40.44"/><line class="cls-1" x1="106.61" y1="68.83" x2="106.61" y2="29"/><line class="cls-1" x1="130.65" y1="68.83" x2="130.65" y2="4.91"/><line class="cls-1" x1="154.69" y1="68.83" x2="154.69" y2="15.98"/><line class="cls-1" x1="178.73" y1="68.83" x2="178.73" y2="48.18"/><line class="cls-1" x1="226.82" y1="68.83" x2="226.82" y2="48.18"/><line class="cls-1" x1="202.78" y1="68.83" x2="202.78" y2="58.5"/><line class="cls-1" x1="274.9" y1="68.83" x2="274.9" y2="7.4"/><line class="cls-1" x1="250.86" y1="68.83" x2="250.86" y2="15.98"/><line class="cls-1" x1="298.94" y1="68.83" x2="298.94" y2="0"/><line class="cls-1" x1="322.98" y1="68.83" x2="322.98" y2="18.64"/><line class="cls-1" x1="371.06" y1="68.83" x2="371.06" y2="58.5"/><line class="cls-1" x1="347.02" y1="68.83" x2="347.02" y2="38.11"/><line class="cls-1" x1="395.1" y1="68.83" x2="395.1" y2="53.47"/><line class="cls-1" x1="419.15" y1="68.83" x2="419.15" y2="48.18"/><line class="cls-1" x1="443.19" y1="68.83" x2="443.19" y2="58.5"/><line class="cls-1" x1="464.91" y1="68.83" x2="464.91" y2="60.16"/><line class="cls-1" x1="488.95" y1="68.83" x2="488.95" y2="56.63"/><line class="cls-1" x1="512.99" y1="68.83" x2="512.99" y2="48.18"/><line class="cls-1" x1="537.03" y1="68.83" x2="537.03" y2="40.44"/><line class="cls-1" x1="561.07" y1="68.83" x2="561.07" y2="29"/><line class="cls-1" x1="585.12" y1="68.83" x2="585.12" y2="4.91"/><line class="cls-1" x1="609.16" y1="68.83" x2="609.16" y2="15.98"/><line class="cls-1" x1="633.2" y1="68.83" x2="633.2" y2="48.18"/><line class="cls-1" x1="681.28" y1="68.83" x2="681.28" y2="48.18"/><line class="cls-1" x1="657.24" y1="68.83" x2="657.24" y2="58.5"/><line class="cls-1" x1="729.36" y1="68.83" x2="729.36" y2="7.4"/><line class="cls-1" x1="705.32" y1="68.83" x2="705.32" y2="15.98"/><line class="cls-1" x1="753.4" y1="68.83" x2="753.4" y2="0"/><line class="cls-1" x1="777.44" y1="68.83" x2="777.44" y2="18.64"/><line class="cls-1" x1="825.53" y1="68.83" x2="825.53" y2="58.5"/><line class="cls-1" x1="801.49" y1="68.83" x2="801.49" y2="38.11"/><line class="cls-1" x1="849.57" y1="68.83" x2="849.57" y2="53.47"/><line class="cls-1" x1="873.61" y1="68.83" x2="873.61" y2="48.18"/><line class="cls-1" x1="897.65" y1="68.83" x2="897.65" y2="58.5"/><line class="cls-1" x1="921.69" y1="68.83" x2="921.69" y2="48.18"/><line class="cls-1" x1="969.77" y1="68.83" x2="969.77" y2="7.4"/><line class="cls-1" x1="945.73" y1="68.83" x2="945.73" y2="15.98"/><line class="cls-1" x1="993.81" y1="68.83" x2="993.81" y2="0"/><line class="cls-1" x1="1017.86" y1="68.83" x2="1017.86" y2="18.64"/><line class="cls-1" x1="1065.94" y1="68.83" x2="1065.94" y2="58.5"/><line class="cls-1" x1="1041.9" y1="68.83" x2="1041.9" y2="38.11"/><line class="cls-1" x1="1089.98" y1="68.83" x2="1089.98" y2="53.47"/><line class="cls-1" x1="1114.02" y1="68.83" x2="1114.02" y2="48.18"/><line class="cls-1" x1="1138.06" y1="68.83" x2="1138.06" y2="58.5"/><line class="cls-1" x1="1159.78" y1="68.83" x2="1159.78" y2="60.16"/><line class="cls-1" x1="1183.83" y1="68.83" x2="1183.83" y2="56.63"/><line class="cls-1" x1="1207.87" y1="68.83" x2="1207.87" y2="48.18"/><line class="cls-1" x1="1231.91" y1="68.83" x2="1231.91" y2="40.44"/><line class="cls-1" x1="1255.95" y1="68.83" x2="1255.95" y2="29"/><line class="cls-1" x1="1279.99" y1="68.83" x2="1279.99" y2="4.91"/><line class="cls-1" x1="1304.03" y1="68.83" x2="1304.03" y2="15.98"/><line class="cls-1" x1="1328.07" y1="68.83" x2="1328.07" y2="48.18"/><line class="cls-1" x1="1352.11" y1="68.83" x2="1352.11" y2="58.5"/><line class="cls-1" x1="1376.15" y1="68.68" x2="1376.15" y2="61.7"/><line class="cls-1" x1="10.35" y1="254.8" x2="10.35" y2="246.14"/><line class="cls-1" x1="34.39" y1="258.33" x2="34.39" y2="246.14"/><line class="cls-1" x1="58.43" y1="266.79" x2="58.43" y2="246.14"/><line class="cls-1" x1="82.47" y1="274.53" x2="82.47" y2="246.14"/><line class="cls-1" x1="106.52" y1="285.96" x2="106.52" y2="246.14"/><line class="cls-1" x1="130.56" y1="310.06" x2="130.56" y2="246.14"/><line class="cls-1" x1="154.6" y1="298.99" x2="154.6" y2="246.14"/><line class="cls-1" x1="178.64" y1="266.79" x2="178.64" y2="246.14"/><line class="cls-1" x1="226.72" y1="266.79" x2="226.72" y2="246.14"/><line class="cls-1" x1="202.68" y1="256.46" x2="202.68" y2="246.14"/><line class="cls-1" x1="274.8" y1="307.57" x2="274.8" y2="246.14"/><line class="cls-1" x1="250.76" y1="298.99" x2="250.76" y2="246.14"/><line class="cls-1" x1="298.85" y1="314.97" x2="298.85" y2="246.14"/><line class="cls-1" x1="322.89" y1="296.32" x2="322.89" y2="246.14"/><line class="cls-1" x1="370.97" y1="256.46" x2="370.97" y2="246.14"/><line class="cls-1" x1="346.93" y1="276.85" x2="346.93" y2="246.14"/><line class="cls-1" x1="395.01" y1="261.49" x2="395.01" y2="246.14"/><line class="cls-1" x1="419.05" y1="266.79" x2="419.05" y2="246.14"/><line class="cls-1" x1="443.09" y1="256.46" x2="443.09" y2="246.14"/><line class="cls-1" x1="464.81" y1="254.8" x2="464.81" y2="246.14"/><line class="cls-1" x1="488.86" y1="258.33" x2="488.86" y2="246.14"/><line class="cls-1" x1="512.9" y1="266.79" x2="512.9" y2="246.14"/><line class="cls-1" x1="536.94" y1="274.53" x2="536.94" y2="246.14"/><line class="cls-1" x1="560.98" y1="285.96" x2="560.98" y2="246.14"/><line class="cls-1" x1="585.02" y1="310.06" x2="585.02" y2="246.14"/><line class="cls-1" x1="609.06" y1="298.99" x2="609.06" y2="246.14"/><line class="cls-1" x1="633.1" y1="266.79" x2="633.1" y2="246.14"/><line class="cls-1" x1="681.18" y1="266.79" x2="681.18" y2="246.14"/><line class="cls-1" x1="657.14" y1="256.46" x2="657.14" y2="246.14"/><line class="cls-1" x1="729.27" y1="307.57" x2="729.27" y2="246.14"/><line class="cls-1" x1="705.23" y1="298.99" x2="705.23" y2="246.14"/><line class="cls-1" x1="753.31" y1="314.97" x2="753.31" y2="246.14"/><line class="cls-1" x1="777.35" y1="296.32" x2="777.35" y2="246.14"/><line class="cls-1" x1="825.43" y1="256.46" x2="825.43" y2="246.14"/><line class="cls-1" x1="801.39" y1="276.85" x2="801.39" y2="246.14"/><line class="cls-1" x1="849.47" y1="261.49" x2="849.47" y2="246.14"/><line class="cls-1" x1="873.51" y1="266.79" x2="873.51" y2="246.14"/><line class="cls-1" x1="897.55" y1="256.46" x2="897.55" y2="246.14"/><line class="cls-1" x1="921.6" y1="266.79" x2="921.6" y2="246.14"/><line class="cls-1" x1="969.68" y1="307.57" x2="969.68" y2="246.14"/><line class="cls-1" x1="945.64" y1="298.99" x2="945.64" y2="246.14"/><line class="cls-1" x1="993.72" y1="314.97" x2="993.72" y2="246.14"/><line class="cls-1" x1="1017.76" y1="296.32" x2="1017.76" y2="246.14"/><line class="cls-1" x1="1065.84" y1="256.46" x2="1065.84" y2="246.14"/><line class="cls-1" x1="1041.8" y1="276.85" x2="1041.8" y2="246.14"/><line class="cls-1" x1="1089.88" y1="261.49" x2="1089.88" y2="246.14"/><line class="cls-1" x1="1113.93" y1="266.79" x2="1113.93" y2="246.14"/><line class="cls-1" x1="1137.97" y1="256.46" x2="1137.97" y2="246.14"/><line class="cls-1" x1="1159.69" y1="254.8" x2="1159.69" y2="246.14"/><line class="cls-1" x1="1183.73" y1="258.33" x2="1183.73" y2="246.14"/><line class="cls-1" x1="1207.77" y1="266.79" x2="1207.77" y2="246.14"/><line class="cls-1" x1="1231.81" y1="274.53" x2="1231.81" y2="246.14"/><line class="cls-1" x1="1255.85" y1="285.96" x2="1255.85" y2="246.14"/><line class="cls-1" x1="1279.89" y1="310.06" x2="1279.89" y2="246.14"/><line class="cls-1" x1="1303.94" y1="298.99" x2="1303.94" y2="246.14"/><line class="cls-1" x1="1327.98" y1="266.79" x2="1327.98" y2="246.14"/><line class="cls-1" x1="1352.02" y1="256.46" x2="1352.02" y2="246.14"/><line class="cls-1" x1="1376.06" y1="253.12" x2="1376.06" y2="246.14"/></svg>